<svg width="42" height="58" viewBox="0 0 42 58" fill="none" xmlns="http://www.w3.org/2000/svg">
<path d="M38.7419 17.7075C38.1003 11.3911 32.6258 9.3161 25.7248 8.76833L25.6788 0L20.3351 0.0437893L20.3801 8.58101C18.9753 8.59256 17.5395 8.63191 16.113 8.67189L16.0688 0.0781122L10.7279 0.121171L10.7718 8.887C9.61502 8.91995 8.47897 8.95064 7.37112 8.96034L7.37028 8.93314L0 8.99024L0.0312402 14.6905C0.0312402 14.6905 3.97696 14.5835 3.91174 14.6566C6.07623 14.6397 6.78724 15.8891 6.99782 16.9704L7.05056 26.9594C7.19992 26.959 7.39484 26.9636 7.61561 26.992C7.4376 26.9937 7.24703 26.9941 7.05112 26.9973L7.12296 40.9909C7.03153 41.6721 6.63682 42.76 5.12459 42.7749C5.19328 42.8349 1.24011 42.8053 1.24011 42.8053L0.2117 49.1879L7.16577 49.1314C8.45989 49.1224 9.73331 49.134 10.9834 49.1319L11.0321 58L16.3701 57.9577L16.324 49.1833C17.7898 49.2017 19.2082 49.2018 20.593 49.1894L20.6364 57.9234L25.98 57.8796L25.9354 49.0272C34.9166 48.4396 41.1926 46.1282 41.9293 37.6957C42.5242 30.9056 39.3128 27.904 34.2067 26.7222C37.2966 25.1214 39.2191 22.3294 38.7419 17.7075ZM31.3649 36.7302C31.4026 43.3574 20.0373 42.6955 16.4157 42.7283L16.3556 30.9785C19.9782 30.95 31.3292 29.8178 31.3649 36.7302ZM28.7929 20.173C28.8228 26.2024 19.3439 25.5755 16.3273 25.6001L16.2718 14.9436C19.2884 14.919 28.7593 13.8842 28.7929 20.173Z" fill="#F7931A"/>
</svg>
