<svg width="30" height="30" viewBox="0 0 30 30" fill="none" xmlns="http://www.w3.org/2000/svg">
<path d="M15.3392 4.99393L15.3491 5.00313L15.3596 5.01177L25.7898 13.6408C26.1123 13.9511 25.8937 14.5004 25.4424 14.5004H24H23.5V15.0004V25.0004C23.5 25.8288 22.8285 26.5004 22 26.5004H8.00003C7.1716 26.5004 6.50003 25.8288 6.50003 25.0004V15.0004V14.5004H6.00003H4.55768C4.10634 14.5004 3.88777 13.9511 4.21024 13.6408L14.6405 5.01177L14.6509 5.00313L14.6609 4.99393C14.8524 4.81713 15.1476 4.81713 15.3392 4.99393Z" stroke="#94AFB6"/>
<rect x="10.5" y="16.5" width="9" height="5" rx="0.5" fill="white" stroke="#94AFB6"/>
</svg>
