<svg width="96" height="96" viewBox="0 0 96 96" fill="none" xmlns="http://www.w3.org/2000/svg">
<path d="M38.5318 76.3079L39.5778 69.6639L37.2478 69.6099H26.1218L33.8538 20.5839C33.8768 20.4341 33.9529 20.2975 34.0682 20.1991C34.1835 20.1007 34.3303 20.0471 34.4818 20.0479H53.2418C59.4698 20.0479 63.7678 21.3439 66.0118 23.9019C67.0638 25.1019 67.7338 26.3559 68.0578 27.7359C68.3978 29.1839 68.4038 30.9139 68.0718 33.0239L68.0478 33.1779V34.5299L69.0998 35.1259C69.9029 35.5327 70.6248 36.0831 71.2298 36.7499C72.1298 37.7759 72.7118 39.0799 72.9578 40.6259C73.2118 42.2159 73.1278 44.1079 72.7118 46.2499C72.2318 48.7139 71.4558 50.8599 70.4078 52.6159C69.4832 54.189 68.2399 55.5514 66.7578 56.6159C65.3658 57.6039 63.7118 58.3539 61.8418 58.8339C60.0298 59.3059 57.9638 59.5439 55.6978 59.5439H54.2378C53.1938 59.5439 52.1798 59.9199 51.3838 60.5939C50.589 61.2751 50.0617 62.2163 49.8958 63.2499L49.7858 63.8479L47.9378 75.5579L47.8538 75.9879C47.8318 76.1239 47.7938 76.1919 47.7378 76.2379C47.6836 76.2822 47.6159 76.3069 47.5458 76.3079H38.5318Z" fill="#253B80"/>
<path d="M68.3053 34C68.2533 34.334 68.1939 34.6754 68.127 35.0262C65.8302 46.8761 57.9721 50.9698 47.936 50.9698H42.826C41.5987 50.9698 40.5644 51.8654 40.3732 53.0819L37.7569 69.755L37.0161 74.4812C36.9865 74.6687 36.9978 74.8603 37.0491 75.043C37.1004 75.2257 37.1904 75.395 37.3131 75.5394C37.4357 75.6837 37.588 75.7996 37.7595 75.8792C37.931 75.9587 38.1177 75.9999 38.3065 76H47.3697C48.4429 76 49.3546 75.2163 49.5236 74.1528L49.6127 73.6901L51.3191 62.8085L51.4287 62.2115C51.5958 61.1442 52.5093 60.3605 53.5826 60.3605H54.9381C63.719 60.3605 70.5929 56.7781 72.602 46.4116C73.4412 42.0809 73.0068 38.4649 70.786 35.9218C70.0821 35.1351 69.2415 34.4839 68.3053 34Z" fill="#179BD7"/>
<path d="M66.5914 33.7944C65.8563 33.5901 65.1084 33.4307 64.3523 33.3171C62.8582 33.0965 61.3482 32.9907 59.8367 33.0006H46.1522C45.6314 33.0003 45.1276 33.1788 44.732 33.5041C44.3363 33.8293 44.0749 34.2798 43.9949 34.7741L41.0838 52.4833L41 53C41.0907 52.4362 41.3885 51.9223 41.8395 51.5511C42.2905 51.1799 42.8649 50.976 43.4588 50.9763H48.5812C58.6417 50.9763 66.5188 47.0522 68.8213 35.7001C68.8902 35.364 68.9479 35.0369 69 34.7169C68.3924 34.4109 67.7592 34.1543 67.107 33.9499C66.936 33.8954 66.7642 33.8436 66.5914 33.7944Z" fill="#222D65"/>
<path d="M43.8312 34.3477C43.9102 33.8324 44.1706 33.3626 44.565 33.0237C44.9595 32.6848 45.4618 32.4993 45.9808 32.5009H59.6168C61.2323 32.5009 62.7402 32.6072 64.1164 32.8308C65.0476 32.9778 65.966 33.1978 66.8632 33.4886C67.5402 33.7141 68.1689 33.9806 68.7495 34.2881C69.432 29.9143 68.7439 26.9363 66.3903 24.2397C63.7955 21.271 59.1123 20 53.1197 20H35.7223C34.4982 20 33.454 20.8945 33.2648 22.1114L26.0184 68.2631C25.9846 68.4774 25.9975 68.6965 26.056 68.9053C26.1146 69.1141 26.2174 69.3077 26.3576 69.4727C26.4977 69.6378 26.6717 69.7704 26.8677 69.8614C27.0637 69.9524 27.277 69.9997 27.4929 70H38.2336L40.9304 52.8084L43.8312 34.3477Z" fill="#253B80"/>
</svg>
