<svg width="30" height="30" viewBox="0 0 30 30" fill="none" xmlns="http://www.w3.org/2000/svg">
<path d="M19.5 9.76271C19.5 13.0402 17.3878 15.5 15 15.5C12.6122 15.5 10.5 13.0402 10.5 9.76271C10.5 8.156 11.0168 7.11866 11.7861 6.47242C12.5704 5.81352 13.69 5.5 15 5.5C16.31 5.5 17.4296 5.81352 18.2139 6.47242C18.9832 7.11866 19.5 8.156 19.5 9.76271Z" stroke="#94AFB6"/>
<path d="M5.91365 17.5894C6.09713 16.9447 6.68607 16.5 7.35635 16.5H9.50454C9.71156 16.5 9.91635 16.5429 10.106 16.6259L13.9975 18.3292C14.6366 18.6089 15.3634 18.609 16.0025 18.3292L19.894 16.6259C20.0836 16.5429 20.2884 16.5 20.4955 16.5H22.6436C23.3139 16.5 23.9029 16.9447 24.0864 17.5894L25.794 23.5894C26.0667 24.5473 25.3473 25.5 24.3513 25.5H5.64866C4.65273 25.5 3.93332 24.5473 4.20596 23.5894L5.91365 17.5894Z" stroke="#94AFB6"/>
</svg>
