<svg width="67" height="22" viewBox="0 0 67 22" fill="none" xmlns="http://www.w3.org/2000/svg">
<path d="M48.7006 0.900526C47.1443 0.293546 45.4994 -0.011294 43.8431 0.000319756C38.4831 0.000319756 34.7004 2.89533 34.6725 7.04345C34.639 10.094 37.3637 11.8106 39.4211 12.8335C41.5344 13.8802 42.2407 14.5382 42.2351 15.4802C42.2212 16.9068 40.5462 17.5528 38.9912 17.5528C36.8528 17.5528 35.6803 17.2328 33.8797 16.4313L33.2125 16.0993L32.4559 20.8785C33.7568 21.4617 36.1018 21.9611 38.5278 22C44.2256 22 47.9497 19.1259 47.9943 14.7057C48.039 12.2742 46.5706 10.4289 43.469 8.90965C41.5875 7.92272 40.415 7.26177 40.415 6.25988C40.415 5.37463 41.4172 4.42957 43.5109 4.42957C44.9033 4.3938 46.2872 4.67196 47.5728 5.24603L48.0753 5.48828L48.8318 0.870618L48.7006 0.900526ZM62.6115 0.392105H58.424C57.1203 0.392105 56.146 0.771924 55.5737 2.15961L47.5197 21.7009H53.2175L54.3565 18.5009L61.3078 18.5068C61.4781 19.2545 61.9778 21.7009 61.9778 21.7009H67L62.6115 0.392105ZM26.9675 0.212661H32.3917L28.9998 21.5334H23.5728L26.9675 0.20668V0.212661ZM13.1795 11.9632L13.7434 14.924L19.0503 0.392105H24.7984L16.2531 21.671H10.519L5.829 3.64899C5.75336 3.352 5.57326 3.09796 5.3265 2.94019C3.6397 2.00152 1.85047 1.29125 0 0.825756L0.0697917 0.377151H8.8105C9.99417 0.425002 10.9489 0.825758 11.2755 2.18354L13.1795 11.9721V11.9632ZM55.9143 14.1374L58.0778 8.17394C58.0499 8.23375 58.5245 6.94176 58.7981 6.14025L59.1694 7.97954L60.4228 14.1314H55.9143V14.1374Z" fill="#253B80"/>
</svg>
